<mxfile type="device" compressed="false">
    <diagram id="Topology" name="Topology">
      <mxGraphModel dx="1000" dy="1000" grid="1" gridSize="10" guides="1" tooltips="1" connect="1" arrows="1" fold="1" page="1" pageScale="1" pageWidth="827" pageHeight="1169" math="0" shadow="1">
        <root>
          <mxCell id="0" />   
          <mxCell id="1" parent="0" />
        <object id="c1" label="c1 1.255.0.2/32">
      <mxCell style="rounded=1;whiteSpace=wrap;html=1;" vertex="1" parent="1">
          <mxGeometry x="510" y="150" width="80" height="60" as="geometry" />
      </mxCell>
    </object><object id="c2" label="c2 1.255.0.3/32">
      <mxCell style="rounded=1;whiteSpace=wrap;html=1;" vertex="1" parent="1">
          <mxGeometry x="761" y="150" width="80" height="60" as="geometry" />
      </mxCell>
    </object><mxCell id="61be80f756f984a8685a13227159ef24-src" value="Gi0-0-0-3" style="labelBackgroundColor=#ffffff;;" vertex="1" connectable="0" parent="61be80f756f984a8685a13227159ef24">
      <mxGeometry x="-0.5" relative="1" as="geometry">
        <mxPoint as="offset" />
      </mxGeometry>
    </mxCell><mxCell id="61be80f756f984a8685a13227159ef24-trgt" value="Gi0-0-0-3" style="labelBackgroundColor=#ffffff;;" vertex="1" connectable="0" parent="61be80f756f984a8685a13227159ef24">
      <mxGeometry x="0.5" relative="-1" as="geometry">
        <mxPoint as="offset" />
      </mxGeometry>
    </mxCell><object id="61be80f756f984a8685a13227159ef24" label="" src_label="Gi0-0-0-3" trgt_label="Gi0-0-0-3" source="c1" target="c2">
      <mxCell style="endArrow=none;" edge="1" parent="1" source="c1" target="c2">
          <mxGeometry relative="1" as="geometry" />
      </mxCell>
    </object><object id="c3" label="c3 1.255.0.4/32">
      <mxCell style="rounded=1;whiteSpace=wrap;html=1;" vertex="1" parent="1">
          <mxGeometry x="510" y="380" width="80" height="60" as="geometry" />
      </mxCell>
    </object><mxCell id="aaada1761e602ac08cdaa8462fee5bf2-src" value="Gi0-0-0-0" style="labelBackgroundColor=#ffffff;;" vertex="1" connectable="0" parent="aaada1761e602ac08cdaa8462fee5bf2">
      <mxGeometry x="-0.5" relative="1" as="geometry">
        <mxPoint as="offset" />
      </mxGeometry>
    </mxCell><mxCell id="aaada1761e602ac08cdaa8462fee5bf2-trgt" value="Gi0-0-0-0" style="labelBackgroundColor=#ffffff;;" vertex="1" connectable="0" parent="aaada1761e602ac08cdaa8462fee5bf2">
      <mxGeometry x="0.5" relative="-1" as="geometry">
        <mxPoint as="offset" />
      </mxGeometry>
    </mxCell><object id="aaada1761e602ac08cdaa8462fee5bf2" label="" src_label="Gi0-0-0-0" trgt_label="Gi0-0-0-0" source="c1" target="c3">
      <mxCell style="endArrow=none;" edge="1" parent="1" source="c1" target="c3">
          <mxGeometry relative="1" as="geometry" />
      </mxCell>
    </object><object id="c4" label="c4 1.255.0.5/32">
      <mxCell style="rounded=1;whiteSpace=wrap;html=1;" vertex="1" parent="1">
          <mxGeometry x="780" y="380" width="80" height="60" as="geometry" />
      </mxCell>
    </object><mxCell id="a833be2849409a077b39fcf0f9823057-src" value="Gi0-0-0-0" style="labelBackgroundColor=#ffffff;;" vertex="1" connectable="0" parent="a833be2849409a077b39fcf0f9823057">
      <mxGeometry x="-0.5" relative="1" as="geometry">
        <mxPoint as="offset" />
      </mxGeometry>
    </mxCell><mxCell id="a833be2849409a077b39fcf0f9823057-trgt" value="Gi0-0-0-0" style="labelBackgroundColor=#ffffff;;" vertex="1" connectable="0" parent="a833be2849409a077b39fcf0f9823057">
      <mxGeometry x="0.5" relative="-1" as="geometry">
        <mxPoint as="offset" />
      </mxGeometry>
    </mxCell><object id="a833be2849409a077b39fcf0f9823057" label="" src_label="Gi0-0-0-0" trgt_label="Gi0-0-0-0" source="c4" target="c2">
      <mxCell style="endArrow=none;" edge="1" parent="1" source="c4" target="c2">
          <mxGeometry relative="1" as="geometry" />
      </mxCell>
    </object><mxCell id="0a4a2e83bdace6137d2d2184033fd6a7-src" value="Gi0-0-0-1" style="labelBackgroundColor=#ffffff;;" vertex="1" connectable="0" parent="0a4a2e83bdace6137d2d2184033fd6a7">
      <mxGeometry x="-0.5" relative="1" as="geometry">
        <mxPoint as="offset" />
      </mxGeometry>
    </mxCell><mxCell id="0a4a2e83bdace6137d2d2184033fd6a7-trgt" value="Gi0-0-0-1" style="labelBackgroundColor=#ffffff;;" vertex="1" connectable="0" parent="0a4a2e83bdace6137d2d2184033fd6a7">
      <mxGeometry x="0.5" relative="-1" as="geometry">
        <mxPoint as="offset" />
      </mxGeometry>
    </mxCell><object id="0a4a2e83bdace6137d2d2184033fd6a7" label="" src_label="Gi0-0-0-1" trgt_label="Gi0-0-0-1" source="c4" target="c3">
      <mxCell style="endArrow=none;" edge="1" parent="1" source="c4" target="c3">
          <mxGeometry relative="1" as="geometry" />
      </mxCell>
    </object><object id="e11" label="e11 1.255.0.6/32">
      <mxCell style="rounded=1;whiteSpace=wrap;html=1;" vertex="1" parent="1">
          <mxGeometry x="340" y="120" width="80" height="60" as="geometry" />
      </mxCell>
    </object><mxCell id="c09caf92fc949de52e55c9def348af0a-src" value="Gi0-0-0-1" style="labelBackgroundColor=#ffffff;;" vertex="1" connectable="0" parent="c09caf92fc949de52e55c9def348af0a">
      <mxGeometry x="-0.5" relative="1" as="geometry">
        <mxPoint as="offset" />
      </mxGeometry>
    </mxCell><mxCell id="c09caf92fc949de52e55c9def348af0a-trgt" value="Gi0-0-0-0" style="labelBackgroundColor=#ffffff;;" vertex="1" connectable="0" parent="c09caf92fc949de52e55c9def348af0a">
      <mxGeometry x="0.5" relative="-1" as="geometry">
        <mxPoint as="offset" />
      </mxGeometry>
    </mxCell><object id="c09caf92fc949de52e55c9def348af0a" label="" src_label="Gi0-0-0-1" trgt_label="Gi0-0-0-0" source="c1" target="e11">
      <mxCell style="endArrow=none;" edge="1" parent="1" source="c1" target="e11">
          <mxGeometry relative="1" as="geometry" />
      </mxCell>
    </object><object id="e12" label="e12 1.255.0.7/32">
      <mxCell style="rounded=1;whiteSpace=wrap;html=1;" vertex="1" parent="1">
          <mxGeometry x="330" y="380" width="80" height="60" as="geometry" />
      </mxCell>
    </object><mxCell id="339caa191ec041e4450185f8520fc5b4-src" value="Gi0-0-0-2" style="labelBackgroundColor=#ffffff;;" vertex="1" connectable="0" parent="339caa191ec041e4450185f8520fc5b4">
      <mxGeometry x="-0.5" relative="1" as="geometry">
        <mxPoint as="offset" />
      </mxGeometry>
    </mxCell><mxCell id="339caa191ec041e4450185f8520fc5b4-trgt" value="Gi0-0-0-0" style="labelBackgroundColor=#ffffff;;" vertex="1" connectable="0" parent="339caa191ec041e4450185f8520fc5b4">
      <mxGeometry x="0.5" relative="-1" as="geometry">
        <mxPoint as="offset" />
      </mxGeometry>
    </mxCell><object id="339caa191ec041e4450185f8520fc5b4" label="" src_label="Gi0-0-0-2" trgt_label="Gi0-0-0-0" source="c3" target="e12">
      <mxCell style="endArrow=none;" edge="1" parent="1" source="c3" target="e12">
          <mxGeometry relative="1" as="geometry" />
      </mxCell>
    </object><mxCell id="ac05358a71f91e7ad6e1009cc5923983-src" value="Gi0-0-0-1" style="labelBackgroundColor=#ffffff;;" vertex="1" connectable="0" parent="ac05358a71f91e7ad6e1009cc5923983">
      <mxGeometry x="-0.5" relative="1" as="geometry">
        <mxPoint as="offset" />
      </mxGeometry>
    </mxCell><mxCell id="ac05358a71f91e7ad6e1009cc5923983-trgt" value="Gi0-0-0-1" style="labelBackgroundColor=#ffffff;;" vertex="1" connectable="0" parent="ac05358a71f91e7ad6e1009cc5923983">
      <mxGeometry x="0.5" relative="-1" as="geometry">
        <mxPoint as="offset" />
      </mxGeometry>
    </mxCell><object id="ac05358a71f91e7ad6e1009cc5923983" label="" src_label="Gi0-0-0-1" trgt_label="Gi0-0-0-1" source="e11" target="e12">
      <mxCell style="endArrow=none;" edge="1" parent="1" source="e11" target="e12">
          <mxGeometry relative="1" as="geometry" />
      </mxCell>
    </object><object id="e21" label="e21 1.255.0.8/32">
      <mxCell style="rounded=1;whiteSpace=wrap;html=1;" vertex="1" parent="1">
          <mxGeometry x="1060" y="120" width="80" height="60" as="geometry" />
      </mxCell>
    </object><mxCell id="6d901c618aa954946ed0983de90a5f27-src" value="Gi0-0-0-1" style="labelBackgroundColor=#ffffff;;" vertex="1" connectable="0" parent="6d901c618aa954946ed0983de90a5f27">
      <mxGeometry x="-0.5" relative="1" as="geometry">
        <mxPoint as="offset" />
      </mxGeometry>
    </mxCell><mxCell id="6d901c618aa954946ed0983de90a5f27-trgt" value="Gi0-0-0-0" style="labelBackgroundColor=#ffffff;;" vertex="1" connectable="0" parent="6d901c618aa954946ed0983de90a5f27">
      <mxGeometry x="0.5" relative="-1" as="geometry">
        <mxPoint as="offset" />
      </mxGeometry>
    </mxCell><object id="6d901c618aa954946ed0983de90a5f27" label="" src_label="Gi0-0-0-1" trgt_label="Gi0-0-0-0" source="c2" target="e21">
      <mxCell style="endArrow=none;" edge="1" parent="1" source="c2" target="e21">
          <mxGeometry relative="1" as="geometry" />
      </mxCell>
    </object><object id="e22" label="e22 1.255.0.9/32">
      <mxCell style="rounded=1;whiteSpace=wrap;html=1;" vertex="1" parent="1">
          <mxGeometry x="1050" y="380" width="80" height="60" as="geometry" />
      </mxCell>
    </object><mxCell id="30dcf07796ff34f8e9e525626be0c956-src" value="Gi0-0-0-2" style="labelBackgroundColor=#ffffff;;" vertex="1" connectable="0" parent="30dcf07796ff34f8e9e525626be0c956">
      <mxGeometry x="-0.5" relative="1" as="geometry">
        <mxPoint as="offset" />
      </mxGeometry>
    </mxCell><mxCell id="30dcf07796ff34f8e9e525626be0c956-trgt" value="Gi0-0-0-0" style="labelBackgroundColor=#ffffff;;" vertex="1" connectable="0" parent="30dcf07796ff34f8e9e525626be0c956">
      <mxGeometry x="0.5" relative="-1" as="geometry">
        <mxPoint as="offset" />
      </mxGeometry>
    </mxCell><object id="30dcf07796ff34f8e9e525626be0c956" label="" src_label="Gi0-0-0-2" trgt_label="Gi0-0-0-0" source="c4" target="e22">
      <mxCell style="endArrow=none;" edge="1" parent="1" source="c4" target="e22">
          <mxGeometry relative="1" as="geometry" />
      </mxCell>
    </object><mxCell id="c5745976cd4da62cc8f30bc1d92d1f49-src" value="Gi0-0-0-1" style="labelBackgroundColor=#ffffff;;" vertex="1" connectable="0" parent="c5745976cd4da62cc8f30bc1d92d1f49">
      <mxGeometry x="-0.5" relative="1" as="geometry">
        <mxPoint as="offset" />
      </mxGeometry>
    </mxCell><mxCell id="c5745976cd4da62cc8f30bc1d92d1f49-trgt" value="Gi0-0-0-1" style="labelBackgroundColor=#ffffff;;" vertex="1" connectable="0" parent="c5745976cd4da62cc8f30bc1d92d1f49">
      <mxGeometry x="0.5" relative="-1" as="geometry">
        <mxPoint as="offset" />
      </mxGeometry>
    </mxCell><object id="c5745976cd4da62cc8f30bc1d92d1f49" label="" src_label="Gi0-0-0-1" trgt_label="Gi0-0-0-1" source="e21" target="e22">
      <mxCell style="endArrow=none;" edge="1" parent="1" source="e21" target="e22">
          <mxGeometry relative="1" as="geometry" />
      </mxCell>
    </object><object id="a11" label="a11 1.255.0.10/32">
      <mxCell style="rounded=1;whiteSpace=wrap;html=1;" vertex="1" parent="1">
          <mxGeometry x="100" y="-20" width="80" height="60" as="geometry" />
      </mxCell>
    </object><mxCell id="790abf0686cbe6647bdade59827f605f-src" value="Gi0-0-0-2" style="labelBackgroundColor=#ffffff;;" vertex="1" connectable="0" parent="790abf0686cbe6647bdade59827f605f">
      <mxGeometry x="-0.5" relative="1" as="geometry">
        <mxPoint as="offset" />
      </mxGeometry>
    </mxCell><mxCell id="790abf0686cbe6647bdade59827f605f-trgt" value="Gi0-0-0-0" style="labelBackgroundColor=#ffffff;;" vertex="1" connectable="0" parent="790abf0686cbe6647bdade59827f605f">
      <mxGeometry x="0.5" relative="-1" as="geometry">
        <mxPoint as="offset" />
      </mxGeometry>
    </mxCell><object id="790abf0686cbe6647bdade59827f605f" label="" src_label="Gi0-0-0-2" trgt_label="Gi0-0-0-0" source="e11" target="a11">
      <mxCell style="endArrow=none;" edge="1" parent="1" source="e11" target="a11">
          <mxGeometry relative="1" as="geometry" />
      </mxCell>
    </object><object id="a12" label="a12 1.255.0.11/32">
      <mxCell style="rounded=1;whiteSpace=wrap;html=1;" vertex="1" parent="1">
          <mxGeometry x="80" y="130" width="80" height="60" as="geometry" />
      </mxCell>
    </object><mxCell id="5da7e49d7e670e1fc3e69f606c5c0296-src" value="Gi0-0-0-1" style="labelBackgroundColor=#ffffff;;" vertex="1" connectable="0" parent="5da7e49d7e670e1fc3e69f606c5c0296">
      <mxGeometry x="-0.5" relative="1" as="geometry">
        <mxPoint as="offset" />
      </mxGeometry>
    </mxCell><mxCell id="5da7e49d7e670e1fc3e69f606c5c0296-trgt" value="Gi0-0-0-0" style="labelBackgroundColor=#ffffff;;" vertex="1" connectable="0" parent="5da7e49d7e670e1fc3e69f606c5c0296">
      <mxGeometry x="0.5" relative="-1" as="geometry">
        <mxPoint as="offset" />
      </mxGeometry>
    </mxCell><object id="5da7e49d7e670e1fc3e69f606c5c0296" label="" src_label="Gi0-0-0-1" trgt_label="Gi0-0-0-0" source="a11" target="a12">
      <mxCell style="endArrow=none;" edge="1" parent="1" source="a11" target="a12">
          <mxGeometry relative="1" as="geometry" />
      </mxCell>
    </object><object id="a13" label="a13 1.255.0.12/32">
      <mxCell style="rounded=1;whiteSpace=wrap;html=1;" vertex="1" parent="1">
          <mxGeometry x="100" y="300" width="80" height="60" as="geometry" />
      </mxCell>
    </object><mxCell id="9af7a9ed02ec676b88961041a1cc9414-src" value="Gi0-0-0-1" style="labelBackgroundColor=#ffffff;;" vertex="1" connectable="0" parent="9af7a9ed02ec676b88961041a1cc9414">
      <mxGeometry x="-0.5" relative="1" as="geometry">
        <mxPoint as="offset" />
      </mxGeometry>
    </mxCell><mxCell id="9af7a9ed02ec676b88961041a1cc9414-trgt" value="Gi0-0-0-0" style="labelBackgroundColor=#ffffff;;" vertex="1" connectable="0" parent="9af7a9ed02ec676b88961041a1cc9414">
      <mxGeometry x="0.5" relative="-1" as="geometry">
        <mxPoint as="offset" />
      </mxGeometry>
    </mxCell><object id="9af7a9ed02ec676b88961041a1cc9414" label="" src_label="Gi0-0-0-1" trgt_label="Gi0-0-0-0" source="a12" target="a13">
      <mxCell style="endArrow=none;" edge="1" parent="1" source="a12" target="a13">
          <mxGeometry relative="1" as="geometry" />
      </mxCell>
    </object><mxCell id="693b546df2c0ae05bc6dadffa712545c-src" value="Gi0-0-0-1" style="labelBackgroundColor=#ffffff;;" vertex="1" connectable="0" parent="693b546df2c0ae05bc6dadffa712545c">
      <mxGeometry x="-0.5" relative="1" as="geometry">
        <mxPoint as="offset" />
      </mxGeometry>
    </mxCell><mxCell id="693b546df2c0ae05bc6dadffa712545c-trgt" value="Gi0-0-0-2" style="labelBackgroundColor=#ffffff;;" vertex="1" connectable="0" parent="693b546df2c0ae05bc6dadffa712545c">
      <mxGeometry x="0.5" relative="-1" as="geometry">
        <mxPoint as="offset" />
      </mxGeometry>
    </mxCell><object id="693b546df2c0ae05bc6dadffa712545c" label="" src_label="Gi0-0-0-1" trgt_label="Gi0-0-0-2" source="a13" target="e12">
      <mxCell style="endArrow=none;" edge="1" parent="1" source="a13" target="e12">
          <mxGeometry relative="1" as="geometry" />
      </mxCell>
    </object><object id="a41" label="a41 1.255.0.13/32">
      <mxCell style="rounded=1;whiteSpace=wrap;html=1;" vertex="1" parent="1">
          <mxGeometry x="1270" y="260" width="80" height="60" as="geometry" />
      </mxCell>
    </object><mxCell id="694ba9efb0f0767c95e7b872741ddbde-src" value="Gi0-0-0-2" style="labelBackgroundColor=#ffffff;;" vertex="1" connectable="0" parent="694ba9efb0f0767c95e7b872741ddbde">
      <mxGeometry x="-0.5" relative="1" as="geometry">
        <mxPoint as="offset" />
      </mxGeometry>
    </mxCell><mxCell id="694ba9efb0f0767c95e7b872741ddbde-trgt" value="Gi0-0-0-0" style="labelBackgroundColor=#ffffff;;" vertex="1" connectable="0" parent="694ba9efb0f0767c95e7b872741ddbde">
      <mxGeometry x="0.5" relative="-1" as="geometry">
        <mxPoint as="offset" />
      </mxGeometry>
    </mxCell><object id="694ba9efb0f0767c95e7b872741ddbde" label="" src_label="Gi0-0-0-2" trgt_label="Gi0-0-0-0" source="e21" target="a41">
      <mxCell style="endArrow=none;" edge="1" parent="1" source="e21" target="a41">
          <mxGeometry relative="1" as="geometry" />
      </mxCell>
    </object><mxCell id="11ab031a3e458f48d8d6bb5a3c5bdeea-src" value="Gi0-0-0-2" style="labelBackgroundColor=#ffffff;;" vertex="1" connectable="0" parent="11ab031a3e458f48d8d6bb5a3c5bdeea">
      <mxGeometry x="-0.5" relative="1" as="geometry">
        <mxPoint as="offset" />
      </mxGeometry>
    </mxCell><mxCell id="11ab031a3e458f48d8d6bb5a3c5bdeea-trgt" value="Gi0-0-0-1" style="labelBackgroundColor=#ffffff;;" vertex="1" connectable="0" parent="11ab031a3e458f48d8d6bb5a3c5bdeea">
      <mxGeometry x="0.5" relative="-1" as="geometry">
        <mxPoint as="offset" />
      </mxGeometry>
    </mxCell><object id="11ab031a3e458f48d8d6bb5a3c5bdeea" label="" src_label="Gi0-0-0-2" trgt_label="Gi0-0-0-1" source="e22" target="a41">
      <mxCell style="endArrow=none;" edge="1" parent="1" source="e22" target="a41">
          <mxGeometry relative="1" as="geometry" />
      </mxCell>
    </object><object id="rr1" label="rr1 1.255.0.14/32">
      <mxCell style="rounded=1;whiteSpace=wrap;html=1;" vertex="1" parent="1">
          <mxGeometry x="640" y="60" width="80" height="60" as="geometry" />
      </mxCell>
    </object><mxCell id="9b1868b9bcfd7db7a48d418352bda1ce-src" value="Gi0-0-0-0" style="labelBackgroundColor=#ffffff;;" vertex="1" connectable="0" parent="9b1868b9bcfd7db7a48d418352bda1ce">
      <mxGeometry x="-0.5" relative="1" as="geometry">
        <mxPoint as="offset" />
      </mxGeometry>
    </mxCell><mxCell id="9b1868b9bcfd7db7a48d418352bda1ce-trgt" value="Gi0-0-0-2" style="labelBackgroundColor=#ffffff;;" vertex="1" connectable="0" parent="9b1868b9bcfd7db7a48d418352bda1ce">
      <mxGeometry x="0.5" relative="-1" as="geometry">
        <mxPoint as="offset" />
      </mxGeometry>
    </mxCell><object id="9b1868b9bcfd7db7a48d418352bda1ce" label="" src_label="Gi0-0-0-0" trgt_label="Gi0-0-0-2" source="rr1" target="c1">
      <mxCell style="endArrow=none;" edge="1" parent="1" source="rr1" target="c1">
          <mxGeometry relative="1" as="geometry" />
      </mxCell>
    </object><mxCell id="98c711e7b42f3d75d67dc4937c06f779-src" value="Gi0-0-0-1" style="labelBackgroundColor=#ffffff;;" vertex="1" connectable="0" parent="98c711e7b42f3d75d67dc4937c06f779">
      <mxGeometry x="-0.5" relative="1" as="geometry">
        <mxPoint as="offset" />
      </mxGeometry>
    </mxCell><mxCell id="98c711e7b42f3d75d67dc4937c06f779-trgt" value="Gi0-0-0-2" style="labelBackgroundColor=#ffffff;;" vertex="1" connectable="0" parent="98c711e7b42f3d75d67dc4937c06f779">
      <mxGeometry x="0.5" relative="-1" as="geometry">
        <mxPoint as="offset" />
      </mxGeometry>
    </mxCell><object id="98c711e7b42f3d75d67dc4937c06f779" label="" src_label="Gi0-0-0-1" trgt_label="Gi0-0-0-2" source="rr1" target="c2">
      <mxCell style="endArrow=none;" edge="1" parent="1" source="rr1" target="c2">
          <mxGeometry relative="1" as="geometry" />
      </mxCell>
    </object><object id="rr2" label="rr2 1.255.0.15/32">
      <mxCell style="rounded=1;whiteSpace=wrap;html=1;" vertex="1" parent="1">
          <mxGeometry x="630" y="500" width="80" height="60" as="geometry" />
      </mxCell>
    </object><mxCell id="3f0856fc03f551ff6879611697f24138-src" value="Gi0-0-0-0" style="labelBackgroundColor=#ffffff;;" vertex="1" connectable="0" parent="3f0856fc03f551ff6879611697f24138">
      <mxGeometry x="-0.5" relative="1" as="geometry">
        <mxPoint as="offset" />
      </mxGeometry>
    </mxCell><mxCell id="3f0856fc03f551ff6879611697f24138-trgt" value="Gi0-0-0-3" style="labelBackgroundColor=#ffffff;;" vertex="1" connectable="0" parent="3f0856fc03f551ff6879611697f24138">
      <mxGeometry x="0.5" relative="-1" as="geometry">
        <mxPoint as="offset" />
      </mxGeometry>
    </mxCell><object id="3f0856fc03f551ff6879611697f24138" label="" src_label="Gi0-0-0-0" trgt_label="Gi0-0-0-3" source="rr2" target="c3">
      <mxCell style="endArrow=none;" edge="1" parent="1" source="rr2" target="c3">
          <mxGeometry relative="1" as="geometry" />
      </mxCell>
    </object><mxCell id="6ebd6b28480b6e811ad8945728915651-src" value="Gi0-0-0-1" style="labelBackgroundColor=#ffffff;;" vertex="1" connectable="0" parent="6ebd6b28480b6e811ad8945728915651">
      <mxGeometry x="-0.5" relative="1" as="geometry">
        <mxPoint as="offset" />
      </mxGeometry>
    </mxCell><mxCell id="6ebd6b28480b6e811ad8945728915651-trgt" value="Gi0-0-0-3" style="labelBackgroundColor=#ffffff;;" vertex="1" connectable="0" parent="6ebd6b28480b6e811ad8945728915651">
      <mxGeometry x="0.5" relative="-1" as="geometry">
        <mxPoint as="offset" />
      </mxGeometry>
    </mxCell><object id="6ebd6b28480b6e811ad8945728915651" label="" src_label="Gi0-0-0-1" trgt_label="Gi0-0-0-3" source="rr2" target="c4">
      <mxCell style="endArrow=none;" edge="1" parent="1" source="rr2" target="c4">
          <mxGeometry relative="1" as="geometry" />
      </mxCell>
    </object><object id="pce1" label="pce1 1.255.0.16/32">
      <mxCell style="rounded=1;whiteSpace=wrap;html=1;" vertex="1" parent="1">
          <mxGeometry x="650" y="-40" width="80" height="60" as="geometry" />
      </mxCell>
    </object><mxCell id="7ba9ac2ef08ae4a8d98dba91037d2c89-src" value="Gi0-0-0-0" style="labelBackgroundColor=#ffffff;;" vertex="1" connectable="0" parent="7ba9ac2ef08ae4a8d98dba91037d2c89">
      <mxGeometry x="-0.5" relative="1" as="geometry">
        <mxPoint as="offset" />
      </mxGeometry>
    </mxCell><mxCell id="7ba9ac2ef08ae4a8d98dba91037d2c89-trgt" value="Gi0-0-0-4" style="labelBackgroundColor=#ffffff;;" vertex="1" connectable="0" parent="7ba9ac2ef08ae4a8d98dba91037d2c89">
      <mxGeometry x="0.5" relative="-1" as="geometry">
        <mxPoint as="offset" />
      </mxGeometry>
    </mxCell><object id="7ba9ac2ef08ae4a8d98dba91037d2c89" label="" src_label="Gi0-0-0-0" trgt_label="Gi0-0-0-4" source="pce1" target="c1">
      <mxCell style="endArrow=none;" edge="1" parent="1" source="pce1" target="c1">
          <mxGeometry relative="1" as="geometry" />
      </mxCell>
    </object><mxCell id="c278a533cb923b15c35bc48b2f57b9a9-src" value="Gi0-0-0-1" style="labelBackgroundColor=#ffffff;;" vertex="1" connectable="0" parent="c278a533cb923b15c35bc48b2f57b9a9">
      <mxGeometry x="-0.5" relative="1" as="geometry">
        <mxPoint as="offset" />
      </mxGeometry>
    </mxCell><mxCell id="c278a533cb923b15c35bc48b2f57b9a9-trgt" value="Gi0-0-0-4" style="labelBackgroundColor=#ffffff;;" vertex="1" connectable="0" parent="c278a533cb923b15c35bc48b2f57b9a9">
      <mxGeometry x="0.5" relative="-1" as="geometry">
        <mxPoint as="offset" />
      </mxGeometry>
    </mxCell><object id="c278a533cb923b15c35bc48b2f57b9a9" label="" src_label="Gi0-0-0-1" trgt_label="Gi0-0-0-4" source="pce1" target="c2">
      <mxCell style="endArrow=none;" edge="1" parent="1" source="pce1" target="c2">
          <mxGeometry relative="1" as="geometry" />
      </mxCell>
    </object><object id="cpe1" label="cpe1 1.255.0.17/32">
      <mxCell style="rounded=1;whiteSpace=wrap;html=1;" vertex="1" parent="1">
          <mxGeometry x="-130" y="30" width="80" height="60" as="geometry" />
      </mxCell>
    </object><mxCell id="d34b34c8f7bed3b0b44a96101fe0f4cd-src" value="Gi0-0-0-0" style="labelBackgroundColor=#ffffff;;" vertex="1" connectable="0" parent="d34b34c8f7bed3b0b44a96101fe0f4cd">
      <mxGeometry x="-0.5" relative="1" as="geometry">
        <mxPoint as="offset" />
      </mxGeometry>
    </mxCell><mxCell id="d34b34c8f7bed3b0b44a96101fe0f4cd-trgt" value="Gi0-0-0-2" style="labelBackgroundColor=#ffffff;;" vertex="1" connectable="0" parent="d34b34c8f7bed3b0b44a96101fe0f4cd">
      <mxGeometry x="0.5" relative="-1" as="geometry">
        <mxPoint as="offset" />
      </mxGeometry>
    </mxCell><object id="d34b34c8f7bed3b0b44a96101fe0f4cd" label="" src_label="Gi0-0-0-0" trgt_label="Gi0-0-0-2" source="cpe1" target="a11">
      <mxCell style="endArrow=none;" edge="1" parent="1" source="cpe1" target="a11">
          <mxGeometry relative="1" as="geometry" />
      </mxCell>
    </object><mxCell id="b17eafcabc0fdb1c2ef32a00c5e02515-src" value="Gi0-0-0-1" style="labelBackgroundColor=#ffffff;;" vertex="1" connectable="0" parent="b17eafcabc0fdb1c2ef32a00c5e02515">
      <mxGeometry x="-0.5" relative="1" as="geometry">
        <mxPoint as="offset" />
      </mxGeometry>
    </mxCell><mxCell id="b17eafcabc0fdb1c2ef32a00c5e02515-trgt" value="Gi0-0-0-2" style="labelBackgroundColor=#ffffff;;" vertex="1" connectable="0" parent="b17eafcabc0fdb1c2ef32a00c5e02515">
      <mxGeometry x="0.5" relative="-1" as="geometry">
        <mxPoint as="offset" />
      </mxGeometry>
    </mxCell><object id="b17eafcabc0fdb1c2ef32a00c5e02515" label="" src_label="Gi0-0-0-1" trgt_label="Gi0-0-0-2" source="cpe1" target="a12">
      <mxCell style="endArrow=none;" edge="1" parent="1" source="cpe1" target="a12">
          <mxGeometry relative="1" as="geometry" />
      </mxCell>
    </object><object id="cpe2" label="cpe2 1.255.0.18/32">
      <mxCell style="rounded=1;whiteSpace=wrap;html=1;" vertex="1" parent="1">
          <mxGeometry x="1460" y="200" width="80" height="60" as="geometry" />
      </mxCell>
    </object><mxCell id="f2ff6e3139df5ea181e565137d59009c-src" value="Gi0-0-0-0" style="labelBackgroundColor=#ffffff;;" vertex="1" connectable="0" parent="f2ff6e3139df5ea181e565137d59009c">
      <mxGeometry x="-0.5" relative="1" as="geometry">
        <mxPoint as="offset" />
      </mxGeometry>
    </mxCell><mxCell id="f2ff6e3139df5ea181e565137d59009c-trgt" value="Gi0-0-0-2" style="labelBackgroundColor=#ffffff;;" vertex="1" connectable="0" parent="f2ff6e3139df5ea181e565137d59009c">
      <mxGeometry x="0.5" relative="-1" as="geometry">
        <mxPoint as="offset" />
      </mxGeometry>
    </mxCell><object id="f2ff6e3139df5ea181e565137d59009c" label="" src_label="Gi0-0-0-0" trgt_label="Gi0-0-0-2" source="cpe2" target="a41">
      <mxCell style="endArrow=none;" edge="1" parent="1" source="cpe2" target="a41">
          <mxGeometry relative="1" as="geometry" />
      </mxCell>
    </object><object id="cpe3" label="cpe3 1.255.0.19/32">
      <mxCell style="rounded=1;whiteSpace=wrap;html=1;" vertex="1" parent="1">
          <mxGeometry x="-130" y="260" width="80" height="60" as="geometry" />
      </mxCell>
    </object><mxCell id="089969c5bef5e9ca67017cff83814fce-src" value="Gi0-0-0-0" style="labelBackgroundColor=#ffffff;;" vertex="1" connectable="0" parent="089969c5bef5e9ca67017cff83814fce">
      <mxGeometry x="-0.5" relative="1" as="geometry">
        <mxPoint as="offset" />
      </mxGeometry>
    </mxCell><mxCell id="089969c5bef5e9ca67017cff83814fce-trgt" value="Gi0-0-0-3" style="labelBackgroundColor=#ffffff;;" vertex="1" connectable="0" parent="089969c5bef5e9ca67017cff83814fce">
      <mxGeometry x="0.5" relative="-1" as="geometry">
        <mxPoint as="offset" />
      </mxGeometry>
    </mxCell><object id="089969c5bef5e9ca67017cff83814fce" label="" src_label="Gi0-0-0-0" trgt_label="Gi0-0-0-3" source="cpe3" target="a12">
      <mxCell style="endArrow=none;" edge="1" parent="1" source="cpe3" target="a12">
          <mxGeometry relative="1" as="geometry" />
      </mxCell>
    </object><mxCell id="1ddfdadf3dc81b5825a79e74f5d57acf-src" value="Gi0-0-0-1" style="labelBackgroundColor=#ffffff;;" vertex="1" connectable="0" parent="1ddfdadf3dc81b5825a79e74f5d57acf">
      <mxGeometry x="-0.5" relative="1" as="geometry">
        <mxPoint as="offset" />
      </mxGeometry>
    </mxCell><mxCell id="1ddfdadf3dc81b5825a79e74f5d57acf-trgt" value="Gi0-0-0-2" style="labelBackgroundColor=#ffffff;;" vertex="1" connectable="0" parent="1ddfdadf3dc81b5825a79e74f5d57acf">
      <mxGeometry x="0.5" relative="-1" as="geometry">
        <mxPoint as="offset" />
      </mxGeometry>
    </mxCell><object id="1ddfdadf3dc81b5825a79e74f5d57acf" label="" src_label="Gi0-0-0-1" trgt_label="Gi0-0-0-2" source="cpe3" target="a13">
      <mxCell style="endArrow=none;" edge="1" parent="1" source="cpe3" target="a13">
          <mxGeometry relative="1" as="geometry" />
      </mxCell>
    </object><object id="cpe4" label="cpe4 1.255.0.20/32">
      <mxCell style="rounded=1;whiteSpace=wrap;html=1;" vertex="1" parent="1">
          <mxGeometry x="1460" y="360" width="80" height="60" as="geometry" />
      </mxCell>
    </object><mxCell id="e86ef6c4526ec062130649e44c856d8f-src" value="Gi0-0-0-0" style="labelBackgroundColor=#ffffff;;" vertex="1" connectable="0" parent="e86ef6c4526ec062130649e44c856d8f">
      <mxGeometry x="-0.5" relative="1" as="geometry">
        <mxPoint as="offset" />
      </mxGeometry>
    </mxCell><mxCell id="e86ef6c4526ec062130649e44c856d8f-trgt" value="Gi0-0-0-3" style="labelBackgroundColor=#ffffff;;" vertex="1" connectable="0" parent="e86ef6c4526ec062130649e44c856d8f">
      <mxGeometry x="0.5" relative="-1" as="geometry">
        <mxPoint as="offset" />
      </mxGeometry>
    </mxCell><object id="e86ef6c4526ec062130649e44c856d8f" label="" src_label="Gi0-0-0-0" trgt_label="Gi0-0-0-3" source="cpe4" target="a41">
      <mxCell style="endArrow=none;" edge="1" parent="1" source="cpe4" target="a41">
          <mxGeometry relative="1" as="geometry" />
      </mxCell>
    </object></root>
      </mxGraphModel>
    </diagram></mxfile>